<svg width="40" height="41" viewBox="0 0 40 41" fill="none" xmlns="http://www.w3.org/2000/svg">
<path d="M20 0.75C31.0457 0.75 40 9.70431 40 20.75C40 31.7957 31.0457 40.75 20 40.75C8.95431 40.75 0 31.7957 0 20.75C0 9.70431 8.95431 0.75 20 0.75Z" fill="#F3F4F6"/>
<path d="M20 0.75C31.0457 0.75 40 9.70431 40 20.75C40 31.7957 31.0457 40.75 20 40.75C8.95431 40.75 0 31.7957 0 20.75C0 9.70431 8.95431 0.75 20 0.75Z" stroke="#E5E7EB"/>
<path d="M27.75 32.75H12.25V8.75H27.75V32.75Z" stroke="#E5E7EB"/>
<g clip-path="url(#clip0_2253_998)">
<path d="M17.4344 25.1687C17.4344 25.2312 17.3625 25.2812 17.2719 25.2812C17.1687 25.2906 17.0969 25.2406 17.0969 25.1687C17.0969 25.1062 17.1688 25.0562 17.2594 25.0562C17.3531 25.0469 17.4344 25.0969 17.4344 25.1687ZM16.4625 25.0281C16.4406 25.0906 16.5031 25.1625 16.5969 25.1812C16.6781 25.2125 16.7719 25.1812 16.7906 25.1187C16.8094 25.0562 16.75 24.9844 16.6562 24.9563C16.575 24.9344 16.4844 24.9656 16.4625 25.0281ZM17.8438 24.975C17.7531 24.9969 17.6906 25.0563 17.7 25.1281C17.7094 25.1906 17.7906 25.2313 17.8844 25.2094C17.975 25.1875 18.0375 25.1281 18.0281 25.0656C18.0187 25.0063 17.9344 24.9656 17.8438 24.975ZM19.9 13C15.5656 13 12.25 16.2906 12.25 20.625C12.25 24.0906 14.4313 27.0563 17.5469 28.1C17.9469 28.1719 18.0875 27.925 18.0875 27.7219C18.0875 27.5281 18.0781 26.4594 18.0781 25.8031C18.0781 25.8031 15.8906 26.2719 15.4313 24.8719C15.4313 24.8719 15.075 23.9625 14.5625 23.7281C14.5625 23.7281 13.8469 23.2375 14.6125 23.2469C14.6125 23.2469 15.3906 23.3094 15.8187 24.0531C16.5031 25.2594 17.65 24.9125 18.0969 24.7063C18.1688 24.2063 18.3719 23.8594 18.5969 23.6531C16.85 23.4594 15.0875 23.2062 15.0875 20.2C15.0875 19.3406 15.325 18.9094 15.825 18.3594C15.7438 18.1562 15.4781 17.3187 15.9062 16.2375C16.5594 16.0344 18.0625 17.0813 18.0625 17.0813C18.6875 16.9063 19.3594 16.8156 20.025 16.8156C20.6906 16.8156 21.3625 16.9063 21.9875 17.0813C21.9875 17.0813 23.4906 16.0312 24.1438 16.2375C24.5719 17.3219 24.3063 18.1562 24.225 18.3594C24.725 18.9125 25.0312 19.3438 25.0312 20.2C25.0312 23.2156 23.1906 23.4563 21.4438 23.6531C21.7313 23.9 21.975 24.3687 21.975 25.1031C21.975 26.1562 21.9656 27.4594 21.9656 27.7156C21.9656 27.9187 22.1094 28.1656 22.5063 28.0938C25.6313 27.0562 27.75 24.0906 27.75 20.625C27.75 16.2906 24.2344 13 19.9 13ZM15.2875 23.7781C15.2469 23.8094 15.2563 23.8813 15.3094 23.9406C15.3594 23.9906 15.4312 24.0125 15.4719 23.9719C15.5125 23.9406 15.5031 23.8687 15.45 23.8094C15.4 23.7594 15.3281 23.7375 15.2875 23.7781ZM14.95 23.525C14.9281 23.5656 14.9594 23.6156 15.0219 23.6469C15.0719 23.6781 15.1344 23.6687 15.1562 23.625C15.1781 23.5844 15.1469 23.5344 15.0844 23.5031C15.0219 23.4844 14.9719 23.4937 14.95 23.525ZM15.9625 24.6375C15.9125 24.6781 15.9312 24.7719 16.0031 24.8313C16.075 24.9031 16.1656 24.9125 16.2062 24.8625C16.2469 24.8219 16.2281 24.7281 16.1656 24.6687C16.0969 24.5969 16.0031 24.5875 15.9625 24.6375ZM15.6063 24.1781C15.5563 24.2094 15.5563 24.2906 15.6063 24.3625C15.6562 24.4344 15.7406 24.4656 15.7812 24.4344C15.8312 24.3938 15.8312 24.3125 15.7812 24.2406C15.7375 24.1688 15.6562 24.1375 15.6063 24.1781Z" fill="#374151"/>
</g>
<defs>
<clipPath id="clip0_2253_998">
<path d="M12.25 12.75H27.75V28.75H12.25V12.75Z" fill="white"/>
</clipPath>
</defs>
</svg>
